<?xml version="1.0" encoding="iso-8859-1"?>
<!-- Uploaded to: SVG Repo, www.svgrepo.com, Generator: SVG Repo Mixer Tools -->
<svg height="800px" width="800px" version="1.1" id="Layer_1" xmlns="http://www.w3.org/2000/svg" xmlns:xlink="http://www.w3.org/1999/xlink" 
	 viewBox="0 0 503.45 503.45" xml:space="preserve">
<g transform="translate(7 6.5)">
	<path style="fill:#E4F2DE;" d="M60.375,311.225c-7.7-20.5-12-43.5-12-67.4s4.3-46.1,12-67.4c27.3-75.1,99.8-128.9,184.3-128.9
		s157,53.8,184.3,128.9c7.7,21.3,11.9,43.5,11.9,67.4c0,23.9-4.3,46.1-11.9,67.4c-7.7,21.3-19.6,41.8-34.1,58.9
		c-29,34.1-69.1,58.9-116.1,67.4l0,0c-11.9,3.4-34.1,3.4-34.1,3.4C160.175,440.025,87.675,386.325,60.375,311.225"/>
	<path style="fill:#ECF4F7;" d="M305.675,284.725c9.4,0,17.1,7.7,17.1,17.1s-7.7,17.1-17.1,17.1s-17.1-7.7-17.1-17.1
		S296.275,284.725,305.675,284.725"/>
	<path style="fill:#FFE079;" d="M211.775,131.125c5.1,0,8.5,4.3,8.5,8.5c0,4.3-3.4,8.5-8.5,8.5c-4.3,0-8.5-4.3-8.5-8.5
		S207.575,131.125,211.775,131.125z M152.075,182.325c17.1,0,25.6,17.1,25.6,34.1s-8.5,34.1-25.6,34.1s-25.6-17.1-25.6-34.1
		S134.975,182.325,152.075,182.325z"/>
	<path style="fill:#80D6FA;" d="M322.775,301.825c0-9.4-7.7-17.1-17.1-17.1s-17.1,7.7-17.1,17.1s7.7,17.1,17.1,17.1
		S322.775,311.225,322.775,301.825 M314.175,216.525c33.3,0,59.7,30.7,59.7,68.3s-26.5,68.3-59.7,68.3s-59.7-30.7-59.7-68.3
		S280.975,216.525,314.175,216.525"/>
</g>
<g>
	<path style="fill:#51565F;" d="M188.975,382.725c-5.1,0-8.5,3.4-8.5,8.5s3.4,8.5,8.5,8.5s8.5-3.4,8.5-8.5
		S194.075,382.725,188.975,382.725z"/>
	<path style="fill:#51565F;" d="M473.975,264.925c17.9,0,28.2-9.4,28.2-9.4c1.7-1.7,1.7-4.3,0-6c-1.7-1.7-4.3-1.7-6,0
		c0,0.9-7.7,7.7-22.2,7.7c-11.9,0-18.8-4.3-21.3-6c0-6.8-0.4-13.5-1.1-20c-1.2-13-3.8-25.9-7.6-38.8c5.9,0.8,13.3,0.6,21.5-2.6
		c17.9-6,23.9-17.9,23.9-18.8c1.7-2.6,0-5.1-1.7-6c-2.6-1.7-5.1,0-6,1.7c0,0-5.1,9.4-18.8,14.5c-11,4.2-18.6,2.6-22.1,1.7
		c-0.2-0.6-0.4-1.1-0.6-1.7c-6.7-18.5-16-35.5-27.4-50.8c5-1.7,11.3-4.3,18.5-9.8c13.7-11.9,15.4-24.7,15.4-25.6
		c0-1.7-1.7-4.3-4.3-4.3c-1.7-0.9-4.3,0.9-4.3,3.4c0,0.9-1.7,11.1-12.8,20.5c-7.1,5.7-14.2,7.8-18.3,8.4
		c-12.9-15.7-28.1-29.4-45-40.5c4.3-2.9,8.7-7.6,13-14.8c9.4-16.2,6-29,6-29.9c-0.9-2.6-2.6-4.3-5.1-3.4c-2.6,0.9-4.3,2.6-3.4,5.1
		c0,0,2.6,10.2-5.1,23c-5,8.6-10.6,12.4-14.3,14.4c-17.5-10.2-36.6-17.9-56.7-22.5c2.9-4.3,5.5-10.4,7-18.3
		c3.4-17.9-4.3-29-4.3-29.9c-1.7-1.7-4.3-2.6-6-0.9s-2.6,4.3-0.9,6c0,0.9,6,9.4,3.4,23.9c-2,8.6-5.5,14.1-8.2,17.4
		c-11.7-2.1-23.6-3.2-35.8-3.2c-8.5,0-16.9,0.5-25.2,1.6c1.1-4.9,1.4-11.5,0-19.1c-3.4-17.9-13.7-26.5-14.5-26.5
		c-1.7-1.7-4.3-0.9-6,0.9c-1.7,1.7-0.9,4.3,0.9,6c0,0.9,8.5,6.8,11.1,21.3c1.3,8.4,0.1,14.8-1.2,18.9c-20.5,3.6-40,10.4-58.1,19.9
		c-0.8-5.2-2.1-11.2-6.4-18.3c-9.4-16.2-22.2-19.6-23-19.6c-2.6,0-4.3,0.9-5.1,3.4c-0.9,2.6,0,4.3,2.6,5.1c0.9,0,10.2,3.4,17.9,16.2
		c4.6,7.2,5.1,13.9,5.2,18.1c-17.6,10.4-33.5,23.4-47.2,38.5c-2.5-4.8-5.9-10.6-12.5-15.7c-14.6-11.8-27.4-11-28.3-11
		c-2.6,0-4.3,1.7-4.3,4.3c0,2.6,1.7,4.3,4.3,4.3c0,0,11.1-0.9,22.2,8.5c7.8,7,10.6,14,11.7,17.7c-12.6,15.5-23,33-30.5,52.1
		c-4.3-4.2-10.2-8.5-18.7-11.9c-17.1-6.8-29-0.9-29.9-0.9c-1.7,1.7-2.6,3.4-1.7,6c1.7,1.7,4.3,2.6,6,1.7c0.9,0,10.2-4.3,23.9,0.9
		c10.2,3.1,15.4,9.2,17.4,12.1c-6.8,19.8-10.5,39.3-11.1,59.4c-4.4-2.5-11.8-4.8-20.8-4.8c-18.8,0-29,9.4-29,9.4
		c-1.7,1.7-1.7,4.3,0,6s4.3,1.7,6,0c0-0.9,7.7-7.7,22.2-7.7c11.9,0,18.8,4.3,21.3,6c0,20.5,3.4,40.1,9.4,58.9
		c-6-0.9-13.7-0.9-22.2,2.6c-17.9,6-23.9,17.9-23.9,18.8c-1.7,2.6,0,5.1,1.7,6c2.6,1.7,5.1,0,6-1.7c0,0,5.1-9.4,18.8-14.5
		c11.1-4.3,18.8-2.6,22.2-1.7c6.8,18.8,17.1,36.7,29,52.1c-5.1,1.7-11.9,4.3-19.6,10.2c-13.8,11.7-15.5,24.5-15.5,25.4
		c0,1.7,1.7,4.3,4.3,4.3c1.7,0.9,4.3-0.9,4.3-3.4c0-0.9,1.7-11.1,12.8-20.5c9.4-6.8,17.1-8.5,20.5-8.5c6.8,8.2,14.4,15.6,22.5,22.5
		c7.1,6.1,14.7,11.7,22.6,16.8c-5.1,2.6-10.2,7.7-15.2,16.1c-9.4,16.2-6,29-6,29.9c0.9,2.6,2.6,4.3,5.1,3.4c2.6-0.9,4.3-2.6,3.4-5.1
		c0,0-2.6-10.2,5.1-23c6-10.2,12.8-13.7,16.2-15.4c9.1,4.8,18.4,9.1,28,12.8c9.2,3.6,18.6,6.5,28.3,8.7c-3.4,4.3-6.8,11.1-8.5,20.4
		c-3.4,17.9,4.3,29,4.3,29.9c1.7,1.7,4.3,2.6,6,0.9s2.6-4.3,0.9-6c0-0.9-6-9.4-3.4-23.9c2.5-10.7,7.3-16.7,10-19.3
		c11.1,2,22.4,3.1,33.9,3.2l0,0c0.8,0,15.4,0,27.5-1.9c-1.4,5.1-2.3,12.1-0.7,20.6c3.4,17.9,13.7,26.5,14.5,26.5
		c0.9,0.9,1.7,0.9,2.6,0.9c1.7,0,2.6-0.9,2.6-0.9c1.7-1.7,0.9-4.3-0.9-6c0-0.9-8.5-6.8-11.1-21.3c-1.6-10.6,0.6-18.1,2.3-21.7
		c12.5-2.4,24.7-6,36.4-10.7c4.8-1.9,9.6-4,14.1-6.3c2-1,4-2,6-3.1c0.9,6,1.7,12.8,6.8,21.3c9.4,16.2,22.2,19.6,23,19.6
		c2.6,0,4.3-0.9,5.1-3.4c0.9-2.6,0-4.3-2.6-5.1c-0.9,0-10.2-3.4-17.9-16.2c-6-9.4-5.1-17.9-5.1-21.3c17.1-10.2,32.4-23,46.1-37.5
		c2.6,5.1,6,11.9,13.7,17.9c14.5,11.9,27.3,11.1,28.2,11.1c2.6,0,4.3-1.7,4.3-4.3s-2.6-4.3-4.3-4.3c0,0-11.1,0.9-22.2-8.5
		c-8.5-7.7-11.1-15.4-11.9-18.8c12.8-15.4,23-32.4,30.7-51.2c4.3,4.3,10.2,8.5,18.8,11.9c17.1,6.8,29,0.9,29.9,0.9
		c1.7-1.7,2.6-3.4,1.7-6c-1.7-1.7-4.3-2.6-6-1.7c0,0-10.2,4.3-23.9-0.9c-11.1-3.4-16.2-10.2-17.9-12.8c6.8-18.8,10.2-38.4,11.1-58.9
		C456.875,262.425,464.575,264.925,473.975,264.925z M431.775,316.225c-7.5,20.7-19,40.6-33.3,57.5c-4.6,5.4-9.5,10.6-14.5,15.4
		c-12,11.5-25.7,21.3-40.2,29.3c-16.6,9.1-34.6,15.7-53.1,19.8c-19.4,4.3-39.4,5.5-59.1,3.4c-8.4-0.9-16.8-2.4-25-4.5
		c-14.5-3.7-28.6-9-41.9-15.9c-13.2-6.8-25.6-15.2-37-24.8c-11.3-9.7-21.6-20.6-30.4-32.6c-9-12.2-16.5-25.4-22.3-39.3
		c-1.2-2.8-2.2-5.5-3.3-8.3c-1.6-4.3-3-8.6-4.3-13.1c-4.5-16.7-7.2-34.4-7.2-52.6c0-8.6,0.5-17.2,1.5-25.5c1.8-13.6,5.1-27,10-40.5
		c27.3-75.4,99.7-126,180-126s152.7,50.6,180.1,125.9c1.9,5.3,3.6,10.6,5,15.9c4.1,15.7,6.5,32,6.5,49.3v0.9
		c0,8.6-0.5,16.9-1.5,25.1C439.975,289.125,436.675,302.625,431.775,316.225z"/>
	<path style="fill:#51565F;" d="M321.175,220.625c-35,0-64,32.4-64,72.5s29,72.5,64,72.5s64-33.3,64-72.5
		C385.175,253.025,356.175,220.625,321.175,220.625z M321.175,357.125c-30.7,0-55.5-29-55.5-64s24.7-64,55.5-64
		c30.7,0,55.5,29,55.5,64S351.975,357.125,321.175,357.125z"/>
	<path style="fill:#51565F;" d="M159.075,186.425c-20.5,0-29.9,19.6-29.9,38.4s9.4,38.4,29.9,38.4s29.9-19.6,29.9-38.4
		C188.975,206.025,179.575,186.425,159.075,186.425z M159.075,254.725c-14.5,0-21.3-15.4-21.3-29.9s6.8-29.9,21.3-29.9
		s21.3,15.4,21.3,29.9S173.575,254.725,159.075,254.725z"/>
	<path style="fill:#51565F;" d="M312.675,288.825c-11.9,0-21.3,9.4-21.3,21.3s9.4,21.3,21.3,21.3s21.3-9.4,21.3-21.3
		S324.675,288.825,312.675,288.825z M312.675,323.025c-6.8,0-12.8-6-12.8-12.8s6-12.8,12.8-12.8s12.8,6,12.8,12.8
		S319.475,323.025,312.675,323.025z"/>
	<path style="fill:#51565F;" d="M218.775,135.225c-6.8,0-12.8,6-12.8,12.8s6,12.8,12.8,12.8s12.8-6,12.8-12.8
		C231.575,141.225,225.675,135.225,218.775,135.225z M218.775,152.325c-2.6,0-4.3-1.7-4.3-4.3s1.7-4.3,4.3-4.3s4.3,1.7,4.3,4.3
		C223.075,150.625,221.375,152.325,218.775,152.325z"/>
	<path style="fill:#51565F;" d="M333.975,160.825c5.1,0,8.5-3.4,8.5-8.5s-3.4-8.5-8.5-8.5s-8.5,3.4-8.5,8.5
		S328.875,160.825,333.975,160.825z"/>
</g>
</svg>